<svg width="70" height="70" viewBox="0 0 70 70" fill="none" xmlns="http://www.w3.org/2000/svg">
<path fill-rule="evenodd" clip-rule="evenodd" d="M0 10.9375C0 4.89689 4.89689 0 10.9375 0H59.0625C65.1031 0 70 4.89689 70 10.9375V59.0625C70 65.1031 65.1031 70 59.0625 70H10.9375C4.89689 70 0 65.1031 0 59.0625V10.9375ZM35 17.5C44.625 17.5 52.5 25.375 52.5 35C52.5 43.75 46.1563 51.1875 37.4063 52.5V40.0312H41.5625L42.4375 35H37.625V31.7188C37.625 30.4062 38.2812 29.0938 40.4688 29.0938H42.6562V24.7188C42.6562 24.7188 40.6875 24.2813 38.7188 24.2813C34.7813 24.2813 32.1562 26.6875 32.1562 31.0625V35H27.7812V40.0312H32.1562V52.2812C23.8437 50.9687 17.5 43.75 17.5 35C17.5 25.375 25.375 17.5 35 17.5Z" fill="#B6B5A0"/>
</svg>
