<svg width="70" height="70" viewBox="0 0 70 70" fill="none" xmlns="http://www.w3.org/2000/svg">
<path d="M35 41.125C31.7188 41.125 28.875 38.5 28.875 35C28.875 31.7187 31.5 28.875 35 28.875C38.2812 28.875 41.125 31.5 41.125 35C41.125 38.2812 38.2812 41.125 35 41.125Z" fill="#B6B5A0"/>
<path fill-rule="evenodd" clip-rule="evenodd" d="M42.4375 20.125H27.5625C25.8125 20.3437 24.9375 20.5625 24.2813 20.7812C23.4063 21 22.75 21.4375 22.0938 22.0937C21.5745 22.613 21.3291 23.1323 21.0326 23.76C20.9544 23.9254 20.8725 24.0988 20.7812 24.2812C20.7474 24.3828 20.7083 24.4895 20.6665 24.6039C20.4376 25.2292 20.125 26.0832 20.125 27.5625V42.4375C20.3438 44.1875 20.5625 45.0625 20.7812 45.7187C21 46.5937 21.4375 47.25 22.0938 47.9062C22.613 48.4255 23.1323 48.6709 23.76 48.9674C23.9255 49.0456 24.0986 49.1274 24.2813 49.2187C24.3828 49.2526 24.4895 49.2917 24.6039 49.3335C25.2292 49.5624 26.0832 49.875 27.5625 49.875H42.4375C44.1875 49.6562 45.0625 49.4375 45.7187 49.2187C46.5937 49 47.25 48.5625 47.9062 47.9062C48.4255 47.387 48.6709 46.8677 48.9674 46.24C49.0456 46.0745 49.1275 45.9013 49.2188 45.7187C49.2526 45.6172 49.2917 45.5105 49.3335 45.396C49.5624 44.7708 49.875 43.9168 49.875 42.4375V27.5625C49.6562 25.8125 49.4375 24.9375 49.2188 24.2812C49 23.4062 48.5625 22.75 47.9062 22.0937C47.387 21.5745 46.8677 21.3291 46.24 21.0326C46.0747 20.9545 45.9011 20.8724 45.7187 20.7812C45.6172 20.7474 45.5105 20.7083 45.3961 20.6664C44.7708 20.4376 43.9168 20.125 42.4375 20.125ZM35 25.5937C29.75 25.5937 25.5937 29.75 25.5937 35C25.5937 40.25 29.75 44.4062 35 44.4062C40.25 44.4062 44.4062 40.25 44.4062 35C44.4062 29.75 40.25 25.5937 35 25.5937ZM46.8125 25.375C46.8125 26.5831 45.8331 27.5625 44.625 27.5625C43.4169 27.5625 42.4375 26.5831 42.4375 25.375C42.4375 24.1669 43.4169 23.1875 44.625 23.1875C45.8331 23.1875 46.8125 24.1669 46.8125 25.375Z" fill="#B6B5A0"/>
<path fill-rule="evenodd" clip-rule="evenodd" d="M0 10.9375C0 4.89689 4.89689 0 10.9375 0H59.0625C65.1031 0 70 4.89689 70 10.9375V59.0625C70 65.1031 65.1031 70 59.0625 70H10.9375C4.89689 70 0 65.1031 0 59.0625V10.9375ZM27.5625 16.8437H42.4375C44.4062 17.0625 45.7187 17.2812 46.8125 17.7187C48.125 18.375 49 18.8125 50.0937 19.9062C51.1875 21 51.8438 22.0937 52.2813 23.1875C52.7188 24.2812 53.1562 25.5937 53.1562 27.5625V42.4375C52.9375 44.4062 52.7188 45.7187 52.2813 46.8125C51.625 48.125 51.1875 49 50.0937 50.0937C49 51.1875 47.9062 51.8437 46.8125 52.2812C45.7187 52.7187 44.4062 53.1562 42.4375 53.1562H27.5625C25.5938 52.9375 24.2813 52.7187 23.1875 52.2812C21.875 51.625 21 51.1875 19.9063 50.0937C18.8125 49 18.1563 47.9062 17.7188 46.8125C17.2813 45.7187 16.8437 44.4062 16.8437 42.4375V27.5625C17.0625 25.5937 17.2813 24.2812 17.7188 23.1875C18.375 21.875 18.8125 21 19.9063 19.9062C21 18.8125 22.0938 18.1562 23.1875 17.7187C24.2813 17.2812 25.5938 16.8437 27.5625 16.8437Z" fill="#B6B5A0"/>
</svg>
