<svg width="70" height="70" viewBox="0 0 70 70" fill="none" xmlns="http://www.w3.org/2000/svg">
<path fill-rule="evenodd" clip-rule="evenodd" d="M10.9375 0C4.89691 0 0 4.89689 0 10.9375V59.0625C0 65.1031 4.89691 70 10.9375 70H59.0625C65.1031 70 70 65.1031 70 59.0625V10.9375C70 4.89689 65.1031 0 59.0625 0H10.9375ZM41.8211 17.5C41.8211 18.0201 41.8697 18.5323 41.9592 19.028C42.3896 21.3195 43.7457 23.286 45.6295 24.513C46.9449 25.3744 48.5038 25.8701 50.1845 25.8701L50.1842 27.2109V31.8835C47.0662 31.8835 44.1758 30.884 41.821 29.1937V41.4238C41.821 47.5267 36.852 52.5 30.7543 52.5C28.3996 52.5 26.2073 51.7522 24.4128 50.4927C21.5549 48.4854 19.6875 45.1699 19.6875 41.4238C19.6875 35.3128 24.6485 30.3477 30.7462 30.3557C31.2577 30.3557 31.753 30.3964 32.2402 30.4615V31.8835L32.2224 31.892L32.2401 31.8916V36.6049C31.7692 36.4586 31.2658 36.3692 30.7462 36.3692C27.9612 36.3692 25.6958 38.6365 25.6958 41.4238C25.6958 43.3661 26.8001 45.0481 28.4077 45.9014C28.4316 45.934 28.4557 45.9663 28.4802 45.9983C28.4617 45.9626 28.4404 45.9276 28.4159 45.8933C29.1223 46.2671 29.918 46.4784 30.7625 46.4784C33.4823 46.4784 35.7072 44.3087 35.8046 41.6108L35.8127 17.5H41.8211Z" fill="#B6B5A0"/>
</svg>
