<svg width="70" height="70" viewBox="0 0 70 70" fill="none" xmlns="http://www.w3.org/2000/svg">
<path d="M40.6875 35L31.5 29.75V40.25L40.6875 35Z" fill="#B6B5A0"/>
<path fill-rule="evenodd" clip-rule="evenodd" d="M0 10.9375C0 4.89689 4.89689 0 10.9375 0H59.0625C65.1031 0 70 4.89689 70 10.9375V59.0625C70 65.1031 65.1031 70 59.0625 70H10.9375C4.89689 70 0 65.1031 0 59.0625V10.9375ZM48.5625 23.4063C50.0938 23.8438 51.1875 24.9375 51.625 26.4688C52.5 29.3125 52.5 35 52.5 35C52.5 35 52.5 40.6875 51.8438 43.5313C51.4063 45.0625 50.3125 46.1563 48.7812 46.5938C45.9375 47.25 35 47.25 35 47.25C35 47.25 23.8437 47.25 21.2187 46.5938C19.6875 46.1563 18.5938 45.0625 18.1563 43.5313C17.5 40.6875 17.5 35 17.5 35C17.5 35 17.5 29.3125 17.9375 26.4688C18.375 24.9375 19.4688 23.8438 21 23.4063C23.8438 22.75 34.7812 22.75 34.7812 22.75C34.7812 22.75 45.9375 22.75 48.5625 23.4063Z" fill="#B6B5A0"/>
</svg>
